<?xml version="1.0" encoding="UTF-8"?>
<svg id="Capa_1" data-name="Capa 1" xmlns="http://www.w3.org/2000/svg" viewBox="0 0 127.07 127.07">
  <defs>
    <style>
      .cls-1 {
        fill: #010101;
        stroke-width: 0px;
      }
    </style>
  </defs>
  <path class="cls-1" d="M63.54,0C28.45,0,0,28.45,0,63.54s28.45,63.54,63.54,63.54,63.54-28.45,63.54-63.54S98.63,0,63.54,0ZM47.08,121.46c-.19-.13-.39-.26-.58-.39,3.09-6.67,6.19-13.33,9.28-20-.22-.14-.44-.28-.66-.41-4.43,6.73-8.86,13.45-13.29,20.18-.17-.09-.35-.18-.52-.27,6.69-16.14,13.37-32.28,20.43-49.32H28.39c-.18-.33-.36-.66-.54-.99,6.27-6.35,12.55-12.69,18.82-19.03-.26-.32-.53-.64-.79-.95-3.59,2.68-7.19,5.36-10.78,8.04-.15-.16-.31-.31-.46-.47,15.36-17.39,30.72-34.77,46.08-52.16.2.14.41.28.62.42-6.75,16.31-13.5,32.61-20.5,49.54h38.5c-17.9,22.53-35.08,44.17-52.26,65.8Z"/>
</svg>